<?xml version="1.0" standalone="no"?>
<!DOCTYPE svg PUBLIC "-//W3C//DTD SVG 20010904//EN"
 "http://www.w3.org/TR/2001/REC-SVG-20010904/DTD/svg10.dtd">
<svg version="1.0" xmlns="http://www.w3.org/2000/svg"
 width="700.000000pt" height="700.000000pt" viewBox="0 0 700.000000 700.000000"
 preserveAspectRatio="xMidYMid meet">
<metadata>
Created by potrace 1.14, written by Peter Selinger 2001-2017
</metadata>
<g transform="translate(0.000000,700.000000) scale(0.100000,-0.100000)"
fill="#000000" stroke="none">
<path d="M1618 4485 c-2 -2 -48 -6 -102 -9 -55 -4 -102 -8 -105 -10 -3 -2 -28
-7 -56 -11 -87 -11 -304 -77 -430 -130 -140 -59 -366 -187 -445 -251 -247
-203 -345 -363 -345 -564 0 -96 31 -224 48 -195 4 9 60 154 123 323 100 269
119 311 149 338 19 17 35 38 35 46 0 8 11 25 25 38 23 22 31 23 193 23 137 1
174 -2 193 -15 18 -11 63 -113 189 -428 l165 -414 33 1 c17 1 35 2 39 2 4 1
-19 28 -52 61 l-60 61 1 87 1 87 92 92 91 92 249 0 c229 1 250 0 272 -18 24
-18 25 -18 47 -1 20 17 46 19 271 19 l250 1 60 -57 c66 -64 81 -92 76 -146 -5
-51 -21 -76 -53 -83 -15 -3 -31 -7 -37 -8 -5 -1 11 -25 37 -52 l46 -49 55 50
c60 55 66 65 38 65 -38 0 -62 32 -66 85 -3 66 3 80 65 143 l52 52 236 0 237 0
77 -77 77 -76 77 76 77 76 253 0 c234 1 255 0 272 -17 18 -18 20 -18 41 -1 20
16 47 18 274 18 l251 1 48 -47 c45 -45 48 -46 48 -22 0 14 6 31 12 37 10 10
10 17 0 32 -6 11 -12 33 -12 48 0 26 -3 29 -26 26 -15 -1 -135 -5 -268 -9
-132 -3 -317 -8 -411 -10 -93 -3 -258 -7 -365 -10 -107 -2 -307 -7 -445 -11
-137 -4 -297 -7 -354 -8 l-105 -1 -50 82 c-63 101 -93 145 -173 250 -88 117
-109 139 -191 204 -175 140 -362 204 -620 213 -56 1 -103 2 -104 1z m217 -179
c17 -3 46 -9 65 -12 60 -9 201 -54 286 -91 93 -40 118 -71 87 -105 -22 -24
-56 -19 -145 21 -35 16 -94 38 -132 50 -67 21 -78 23 -146 35 -19 3 -48 8 -65
11 -36 6 -239 7 -275 1 -14 -2 -43 -6 -65 -10 -22 -3 -79 -17 -128 -31 -96
-28 -137 -31 -155 -13 -17 17 -15 44 3 62 15 14 129 53 185 62 14 3 31 7 38 9
7 2 40 7 75 11 34 3 64 8 66 10 6 5 273 -4 306 -10z"/>
<path d="M551 4011 c-7 -12 9 -65 48 -156 5 -11 19 -47 31 -80 12 -33 26 -69
31 -80 37 -88 149 -388 145 -392 -2 -3 -44 -5 -92 -6 l-89 -2 -31 -89 c-18
-49 -30 -95 -27 -102 4 -11 39 -14 167 -14 l162 0 13 -37 c28 -82 20 -78 192
-77 85 1 160 2 168 3 17 1 10 41 -17 103 -11 24 -99 243 -197 488 -97 245
-179 447 -181 450 -3 2 -75 5 -160 5 -124 0 -157 -2 -163 -14z"/>
<path d="M482 3928 c-5 -7 -54 -130 -107 -273 -53 -143 -107 -287 -120 -320
-88 -226 -125 -338 -116 -349 12 -15 306 -15 320 -1 5 6 50 136 100 291 l91
280 -24 70 c-53 153 -107 290 -120 302 -10 11 -15 11 -24 0z"/>
<path d="M4790 3820 l0 -91 138 3 137 3 3 88 3 87 -141 0 -140 0 0 -90z"/>
<path d="M6277 3814 c-1 -1 -186 -4 -412 -8 -427 -6 -726 -14 -730 -18 -1 -2
-5 -21 -7 -43 l-5 -40 154 0 c148 0 156 -1 173 -22 21 -26 35 -29 47 -9 16 26
53 36 143 36 l92 0 79 -76 78 -77 73 72 c40 39 82 74 93 76 11 3 127 4 258 2
l238 -2 65 -66 c61 -64 64 -69 64 -117 0 -59 -28 -102 -66 -102 -13 0 -24 -3
-24 -8 0 -4 25 -33 55 -64 48 -50 62 -76 56 -110 -4 -27 80 33 113 80 35 51
45 83 52 162 6 56 3 82 -15 137 -27 83 -70 132 -148 170 -57 27 -62 27 -241
28 -101 0 -184 -1 -185 -1z"/>
<path d="M1425 3644 c-11 -6 -49 -39 -84 -75 l-64 -64 -3 -66 -3 -67 76 -71
75 -71 152 0 152 0 -1 -121 c-1 -137 -1 -137 79 -134 41 1 53 7 77 33 16 18
30 32 32 32 2 0 19 -15 38 -33 l34 -33 131 1 c71 1 135 5 141 8 7 4 11 29 9
60 l-2 52 -61 3 c-61 3 -62 3 -65 35 l-3 32 -66 3 -67 3 2 29 1 30 151 0 152
0 1 -122 c1 -67 4 -124 7 -127 3 -3 28 -6 57 -7 l52 -1 83 81 82 81 0 65 0 66
-74 73 -75 74 -158 1 -158 1 0 110 c-1 61 -4 115 -7 120 -4 6 -30 10 -58 9
-43 -2 -58 -7 -84 -33 l-32 -31 -32 32 -31 33 -140 -1 c-76 -1 -143 -4 -149
-7 -5 -4 -9 -30 -8 -59 l1 -53 68 -3 c37 -2 68 -7 68 -12 1 -6 2 -14 3 -19 2
-19 19 -26 67 -27 70 -2 69 -1 69 -32 l0 -28 -160 0 -160 0 -1 41 c0 22 0 72
1 112 1 49 -3 74 -12 79 -19 12 -79 11 -103 -2z"/>
<path d="M2252 3652 l-82 -3 0 -59 0 -60 70 0 c68 0 70 -1 70 -25 0 -14 3 -26
8 -26 22 -4 229 -5 240 -1 6 2 12 20 12 41 0 31 -8 44 -48 83 -47 45 -50 46
-118 50 -39 1 -107 2 -152 0z"/>
<path d="M2792 3649 c-31 -12 -83 -76 -86 -105 -7 -61 -5 -62 197 -62 102 1
188 -2 193 -5 5 -3 9 -110 9 -244 -1 -131 2 -243 6 -248 6 -8 212 -13 262 -6
4 1 7 115 7 254 l0 252 -82 82 -83 82 -203 3 c-112 2 -211 0 -220 -3z"/>
<path d="M3573 3649 c-10 -4 -49 -39 -87 -77 l-68 -70 1 -66 1 -66 72 -70 73
-69 153 -1 152 0 0 -125 c0 -76 4 -125 10 -126 85 -11 119 -2 157 39 l24 26
32 -34 32 -35 140 0 140 0 0 60 0 60 -57 3 c-42 2 -58 7 -59 17 -1 8 -3 20 -4
25 -1 6 -3 15 -4 20 0 6 -30 10 -66 10 l-65 0 0 30 0 30 153 0 152 0 -1 -120
c-1 -70 3 -123 9 -127 5 -3 34 -7 63 -8 l54 -2 78 81 78 81 -1 67 -1 67 -72
72 -72 73 -160 0 -160 0 0 118 c0 87 -3 118 -12 119 -7 0 -31 2 -53 3 -32 2
-46 -4 -75 -31 l-37 -32 -34 32 -34 33 -143 -2 c-79 -1 -146 -4 -149 -8 -5 -5
-6 -36 -4 -93 1 -22 5 -23 71 -23 68 0 70 -1 70 -25 0 -14 5 -26 10 -26 6 -1
33 -3 60 -4 28 -1 54 -3 58 -4 12 -2 10 -50 -2 -54 -6 -2 -78 -3 -161 -3
l-150 1 -1 112 c0 62 -3 116 -7 119 -9 10 -83 11 -104 3z"/>
<path d="M4385 3650 l-70 -5 0 -55 0 -55 68 -3 c37 -2 68 -7 68 -12 6 -44 12
-46 134 -45 126 1 137 5 129 54 -3 14 -26 48 -53 74 l-47 48 -80 2 c-43 1
-110 0 -149 -3z"/>
<path d="M4893 3652 l-103 -3 0 -333 c0 -258 3 -335 13 -338 6 -2 68 -4 137
-4 l125 1 3 336 2 337 -37 3 c-21 2 -84 3 -140 1z"/>
<path d="M5152 3652 l-22 -3 2 -337 3 -336 128 -1 c70 -1 133 2 139 6 8 5 12
99 12 329 1 177 -1 326 -4 330 -5 9 -214 18 -258 12z"/>
<path d="M5599 3650 c-52 -5 -61 -9 -98 -50 -35 -37 -41 -51 -39 -80 3 -34 4
-35 48 -37 25 -1 51 -2 58 -2 9 -1 12 -58 12 -250 0 -229 1 -249 18 -253 29
-6 251 -3 258 5 4 3 7 122 7 263 l-1 256 -72 73 c-79 80 -90 84 -191 75z"/>
<path d="M6076 3652 c-10 -2 -52 -38 -92 -79 l-74 -76 0 -62 0 -62 76 -72 75
-71 152 0 152 0 -1 -120 c-1 -138 -1 -139 79 -135 47 2 52 6 126 82 l77 79 -1
66 -2 67 -70 71 -71 71 -163 0 -164 0 1 115 c1 72 -2 116 -9 121 -12 7 -63 10
-91 5z"/>
<path d="M6233 3645 c-10 -7 -13 -26 -11 -60 l3 -50 68 -5 c37 -3 68 -9 68
-15 3 -37 16 -41 133 -40 63 0 118 3 121 7 4 4 8 20 9 37 2 25 -7 40 -48 80
l-51 50 -139 3 c-84 2 -145 -1 -153 -7z"/>
<path d="M2706 3315 c-52 -52 -56 -60 -57 -103 -2 -133 -6 -121 57 -182 l59
-56 105 1 105 1 43 39 c35 33 42 45 42 77 0 21 -4 39 -10 39 -5 1 -38 2 -72 3
l-63 1 0 52 c-1 29 1 56 4 60 3 5 35 8 71 8 l65 0 0 55 0 55 -146 3 -147 3
-56 -56z"/>
<path d="M1277 3163 c-16 -15 -5 -49 31 -91 20 -25 47 -56 58 -70 21 -26 24
-26 158 -27 75 -1 141 2 147 5 6 4 9 31 7 61 l-3 54 -60 5 c-54 4 -60 7 -61
28 -1 12 -2 27 -3 32 -1 11 -263 14 -274 3z"/>
<path d="M3420 3138 c0 -26 13 -47 59 -98 l59 -65 137 -1 c154 0 153 -1 151
76 l-1 45 -62 3 c-62 3 -62 3 -65 35 l-3 32 -137 3 -138 3 0 -33z"/>
<path d="M5917 3163 c-17 -17 -2 -50 53 -117 l59 -72 133 2 c73 1 139 2 146 3
9 1 12 17 10 59 l-3 57 -63 3 c-58 3 -63 5 -62 25 4 48 7 47 -133 47 -74 0
-137 -3 -140 -7z"/>
<path d="M2521 2984 c-67 -68 -74 -70 -186 -65 -38 2 -30 2 -218 0 -149 -2
-159 -1 -179 18 l-21 21 -28 -20 c-22 -17 -41 -20 -96 -19 -89 2 -84 2 -260 0
-125 -2 -156 1 -176 14 -23 15 -27 15 -58 -1 -28 -14 -62 -17 -200 -16 -98 1
-175 6 -187 13 -11 6 -28 31 -37 56 l-18 45 -136 0 c-75 0 -146 3 -158 6 -16
4 -23 0 -28 -18 -4 -12 -14 -38 -22 -56 -9 -18 -14 -34 -12 -36 22 -22 196
-128 279 -170 324 -166 586 -234 900 -236 58 0 116 1 130 3 14 2 50 8 80 12
179 25 376 129 520 274 87 88 207 241 188 240 -7 0 -42 -29 -77 -65z"/>
</g>
</svg>
